<svg width="380" height="17" viewBox="0 0 380 17" fill="none" xmlns="http://www.w3.org/2000/svg">
<path d="M7 11.5L16.1632 6.7875C21.195 4.1997 27.2969 4.94729 31.5552 8.67328L32.3575 9.37528C37.037 13.4699 44.0087 13.523 48.75 9.5L49.3014 9.03219C53.7258 5.27808 60.2315 5.32759 64.5984 9.14857L65.9917 10.3678C69.9159 13.8015 75.8968 13.4959 79.5163 9.74234V9.74234C83.3009 5.81755 89.6431 5.75946 93.4277 9.68426V9.68426C97.0747 13.4663 103.081 13.6245 106.922 10.0396L107.876 9.1495C111.937 5.35851 118.194 5.21045 122.431 8.80509L123.453 9.67203C128.096 13.6119 134.908 13.6166 139.557 9.68296L144.3 5.66894C148.087 2.46467 153.698 2.69805 157.206 6.20573L159.125 8.12517C162.413 11.4132 167.892 10.8485 170.441 6.95899V6.95899C172.86 3.26614 177.971 2.53395 181.33 5.39895L185.239 8.73346C188.933 11.8844 194.505 11.3421 197.522 7.53784V7.53784C200.706 3.52243 206.679 3.17899 210.303 6.8029L211.82 8.31956C215.4 11.8996 221.026 12.4104 225.192 9.53375L232.074 4.78213C235.971 2.09134 241.287 2.88382 244.23 6.59424L244.944 7.49403C247.903 11.2261 253.455 11.5453 256.823 8.17711L259.066 5.93437C261.93 3.06987 266.776 3.96162 268.433 7.6582V7.6582C269.984 11.1173 274.387 12.1744 277.339 9.79642L282.057 5.99607C286.271 2.60099 292.38 2.98274 296.139 6.8761L297.314 8.09356C300.73 11.6311 306.367 11.7283 309.903 8.31066L312.977 5.33844C315.73 2.67737 320.27 3.42161 322.029 6.82237V6.82237C323.911 10.4618 328.899 10.9975 331.511 7.84082L332.73 6.36767C335.486 3.03778 340.575 2.98658 343.397 6.26035L344.184 7.17333C347.462 10.9758 353.391 10.8544 356.511 6.92098L356.797 6.56033C359.671 2.93623 364.938 2.32614 368.565 5.19723L374 9.5" stroke="#3AE000" stroke-width="4"/>
</svg>
