<svg width="380" height="51" viewBox="0 0 380 51" fill="none" xmlns="http://www.w3.org/2000/svg">
<path d="M46.5 39.6203L57.2249 33.6488C72.4508 25.1714 90.9921 25.233 106.161 33.8116L112.115 37.1787C127.293 45.7625 145.847 45.8187 161.077 37.3269L166.987 34.0318C182.564 25.3467 201.588 25.6161 216.912 34.7388L218.156 35.4789C234.178 45.0169 254.176 44.8469 270.034 35.0381L270.603 34.6862C285.359 25.5586 303.793 24.7339 319.305 32.5073L333.5 39.6203" stroke="#D56703" stroke-width="8"/>
<path d="M43.5 34L57.0172 26.2231C72.3395 17.4077 91.1778 17.338 106.565 26.0399L112.115 29.1787C127.293 37.7625 145.847 37.8187 161.077 29.3269L166.987 26.0318C182.564 17.3467 201.588 17.6161 216.912 26.7388L218.156 27.4789C234.178 37.0168 254.231 36.8127 270.089 27.0039V27.0039C285.095 17.7219 303.935 17.0043 319.577 25.1681L336.5 34" stroke="#D46703" stroke-width="8"/>
<path d="M39.5 27.5L57.5119 17.9053C72.6009 9.86758 90.7508 10.0966 105.632 18.5125L112.115 22.1787C127.293 30.7625 145.847 30.8187 161.077 22.3269L166.987 19.0318C182.564 10.3467 201.588 10.6161 216.912 19.7388L218.156 20.4789C234.178 30.0169 254.176 29.8469 270.034 20.0381L270.543 19.7232C285.332 10.5755 303.811 9.76864 319.341 17.5924L340 28" stroke="#FFD6B0" stroke-width="8"/>
<path d="M57.2249 10.6488L55.2791 7.154L55.2088 7.19312L55.1402 7.23504L57.2249 10.6488ZM106.161 10.8116L104.192 14.2934L104.192 14.2934L106.161 10.8116ZM112.115 14.1787L114.084 10.6969L114.084 10.6969L112.115 14.1787ZM161.077 14.3269L163.025 17.8206L163.025 17.8206L161.077 14.3269ZM166.987 11.0318L165.039 7.53819L165.039 7.53819L166.987 11.0318ZM216.912 11.7388L218.958 8.30175L218.958 8.30174L216.912 11.7388ZM218.156 12.4789L216.109 15.916L216.109 15.916L218.156 12.4789ZM270.034 12.0381L272.138 15.4399L272.138 15.4399L270.034 12.0381ZM270.603 11.6862L268.499 8.28434L268.499 8.28434L270.603 11.6862ZM319.305 9.50729L321.171 5.96897L321.134 5.94969L321.097 5.93116L319.305 9.50729ZM39.0848 26.4138L59.3097 14.0626L55.1402 7.23504L34.9152 19.5862L39.0848 26.4138ZM104.192 14.2934L110.146 17.6605L114.084 10.6969L108.13 7.32983L104.192 14.2934ZM163.025 17.8206L168.935 14.5255L165.039 7.53819L159.129 10.8333L163.025 17.8206ZM214.866 15.1759L216.109 15.916L220.202 9.04184L218.958 8.30175L214.866 15.1759ZM272.138 15.4399L272.707 15.088L268.499 8.28434L267.93 8.63627L272.138 15.4399ZM317.44 13.0456L341.134 25.5383L344.866 18.4617L321.171 5.96897L317.44 13.0456ZM272.707 15.088C286.283 6.69063 303.242 5.93192 317.513 13.0834L321.097 5.93116C304.344 -2.46407 284.436 -1.57343 268.499 8.28434L272.707 15.088ZM216.109 15.916C233.413 26.217 255.012 26.0334 272.138 15.4399L267.93 8.63626C253.341 17.6604 234.942 17.8167 220.202 9.04183L216.109 15.916ZM168.935 14.5255C183.266 6.53519 200.768 6.78304 214.866 15.1759L218.958 8.30174C202.408 -1.55076 181.862 -1.84172 165.039 7.53819L168.935 14.5255ZM110.146 17.6605C126.539 26.931 146.577 26.9917 163.025 17.8206L159.129 10.8333C145.118 18.6457 128.048 18.594 114.084 10.6969L110.146 17.6605ZM59.1708 14.1436C73.1786 6.34436 90.2366 6.40112 104.192 14.2934L108.13 7.32983C91.7476 -1.93502 71.723 -2.00165 55.2791 7.154L59.1708 14.1436Z" fill="#D46703"/>
</svg>
