<svg width="380" height="131" viewBox="0 0 380 131" fill="none" xmlns="http://www.w3.org/2000/svg">
<path d="M17 131C17 58.6507 75.6507 0 148 0H233C305.349 0 364 58.6507 364 131H17Z" fill="#F3B003"/>
<ellipse cx="194.981" cy="24.8011" rx="7.40224" ry="19" transform="rotate(35.1012 194.981 24.8011)" fill="#F4FF7B"/>
<ellipse cx="122.981" cy="33.8011" rx="7.40224" ry="19" transform="rotate(35.1012 122.981 33.8011)" fill="#F4FF7B"/>
<ellipse cx="300.981" cy="75.8011" rx="7.40224" ry="19" transform="rotate(35.1012 300.981 75.8011)" fill="#F4FF7B"/>
<ellipse cx="64.9815" cy="75.8011" rx="7.40224" ry="19" transform="rotate(35.1012 64.9815 75.8011)" fill="#F4FF7B"/>
<ellipse cx="208.981" cy="93.8011" rx="7.40224" ry="19" transform="rotate(35.1012 208.981 93.8011)" fill="#F4FF7B"/>
<ellipse cx="156.981" cy="84.8011" rx="7.40224" ry="19" transform="rotate(35.1012 156.981 84.8011)" fill="#F4FF7B"/>
<ellipse cx="266.981" cy="42.8011" rx="7.40224" ry="19" transform="rotate(35.1012 266.981 42.8011)" fill="#F4FF7B"/>
</svg>
