<svg width="749" height="71" viewBox="0 0 749 71" fill="none" xmlns="http://www.w3.org/2000/svg">
<path d="M85.4 68.04H86.936V69H66.104V68.136H67.544C68.632 68.136 69.56 67.72 70.328 66.888C71.096 65.992 71.416 65.032 71.288 64.008L66.968 15.72L46.808 60.552C45.016 64.456 43.928 67.72 43.544 70.344H42.584L18.008 17.064L13.88 64.008C13.752 65.032 14.072 65.992 14.84 66.888C15.608 67.72 16.504 68.136 17.528 68.136H19.064V69H0.44V68.04H1.976C3.768 68.04 5.304 67.496 6.584 66.408C7.928 65.32 8.728 63.848 8.984 61.992L16.184 0.455996H17.144L43.928 58.344L70.136 0.455996H71L78.392 61.992C78.712 64.552 79.992 66.344 82.232 67.368C83.192 67.816 84.248 68.04 85.4 68.04ZM95.3518 68.04C97.0158 68.04 98.4238 67.464 99.5758 66.312C100.792 65.096 101.432 63.656 101.496 61.992V8.232C101.304 6.696 100.632 5.416 99.4798 4.392C98.3278 3.304 96.9518 2.75999 95.3518 2.75999H94.1998L94.1038 1.8H122.232C124.216 1.8 126.36 1.608 128.664 1.224C131.032 0.839998 132.696 0.455997 133.656 0.0719948V12.168H132.696V10.44C132.696 8.904 132.152 7.592 131.064 6.504C130.04 5.416 128.792 4.84 127.32 4.776H107.736V34.44H123.96C125.24 34.376 126.328 33.896 127.224 33C128.12 32.104 128.568 30.984 128.568 29.64V28.296H129.528V43.464H128.568V42.024C128.568 40.744 128.12 39.656 127.224 38.76C126.392 37.864 125.336 37.384 124.056 37.32H107.736V66.024H121.464C126.2 66.024 129.816 64.968 132.312 62.856C134.808 60.744 136.888 57.608 138.552 53.448H139.512L133.944 69H94.1038V68.04H95.3518ZM182.099 70.344C171.859 70.28 163.539 67.048 157.139 60.648C150.803 54.248 147.635 45.832 147.635 35.4C147.635 24.968 150.803 16.552 157.139 10.152C163.539 3.688 171.859 0.455996 182.099 0.455996C190.931 0.455996 198.707 2.632 205.427 6.984L207.347 20.52H206.483C205.075 15.016 202.227 10.792 197.939 7.848C193.715 4.84 188.435 3.336 182.099 3.336C173.971 3.336 167.379 6.28 162.323 12.168C157.331 18.056 154.835 25.8 154.835 35.4C154.835 45 157.331 52.744 162.323 58.632C167.379 64.456 173.971 67.4 182.099 67.464C186.259 67.464 190.195 66.728 193.907 65.256C197.683 63.784 200.979 61.736 203.795 59.112V42.12C203.795 40.712 203.347 39.656 202.451 38.952C201.619 38.184 200.435 37.8 198.899 37.8H197.363V36.84H216.179V37.8H214.739C213.139 37.8 211.923 38.184 211.091 38.952C210.259 39.656 209.875 40.712 209.939 42.12V57.96C208.275 60.136 206.291 62.088 203.987 63.816C201.683 65.544 198.579 67.08 194.675 68.424C190.835 69.704 186.643 70.344 182.099 70.344ZM286.736 68.04H287.504V69H265.904V68.04H266.768C268.112 68.04 269.104 67.624 269.744 66.792C270.448 65.896 270.8 65.064 270.8 64.296C270.8 63.528 270.672 62.76 270.416 61.992L264.272 45.672H238.352L231.92 62.088C231.664 62.856 231.536 63.624 231.536 64.392C231.536 65.096 231.856 65.896 232.496 66.792C233.2 67.624 234.224 68.04 235.568 68.04H236.432V69H217.136V68.04H218C219.6 68.04 221.168 67.528 222.704 66.504C224.24 65.48 225.488 63.976 226.448 61.992L248.144 10.344C250.512 5.16 251.696 1.864 251.696 0.455996H252.56L278.288 61.992C279.184 63.976 280.4 65.48 281.936 66.504C283.472 67.528 285.072 68.04 286.736 68.04ZM239.504 42.792H263.12L251.6 11.976L239.504 42.792ZM315.528 69H292.104L292.2 68.04H293.352C295.016 68.04 296.424 67.464 297.576 66.312C298.792 65.16 299.432 63.752 299.496 62.088V8.712C299.496 7.048 298.888 5.64 297.672 4.488C296.456 3.33599 295.016 2.75999 293.352 2.75999H292.2L292.104 1.8H311.208C317.8 1.8 322.92 3.272 326.568 6.216C330.216 9.096 332.04 12.968 332.04 17.832C332.04 21.672 331.016 24.872 328.968 27.432C326.92 29.928 324.424 31.592 321.48 32.424C326.536 33.192 330.536 35.272 333.48 38.664C336.424 42.056 337.896 46.344 337.896 51.528C337.896 56.648 335.912 60.84 331.944 64.104C328.04 67.368 322.568 69 315.528 69ZM305.736 65.544H315.144C315.208 65.544 315.272 65.544 315.336 65.544C320.2 65.544 323.976 64.232 326.664 61.608C329.352 58.92 330.696 55.144 330.696 50.28C330.696 47.528 330.216 45.128 329.256 43.08C328.36 40.968 327.208 39.304 325.8 38.088C322.088 35.016 316.52 33.48 309.096 33.48C309.096 33.48 309.064 33.48 309 33.48V32.616C309.064 32.616 309.352 32.616 309.864 32.616C310.44 32.616 311.24 32.552 312.264 32.424C313.288 32.296 314.44 32.072 315.72 31.752C317 31.432 318.152 30.92 319.176 30.216C320.2 29.512 321.16 28.68 322.056 27.72C323.912 25.608 324.84 22.472 324.84 18.312C324.84 14.088 323.624 10.792 321.192 8.424C318.824 6.056 315.368 4.872 310.824 4.872H305.736V65.544ZM413.154 2.75999H411.618C410.274 2.75999 409.09 3.20799 408.066 4.10399C407.106 4.936 406.594 5.992 406.53 7.272V45.288C406.53 52.776 404.162 58.824 399.426 63.432C394.69 68.04 388.386 70.344 380.514 70.344C372.642 70.344 366.242 68.072 361.314 63.528C356.45 58.92 354.018 52.872 354.018 45.384V7.56C354.018 5.64 353.186 4.232 351.522 3.336C350.754 2.952 349.89 2.75999 348.93 2.75999H347.394V1.8H366.882V2.75999H365.346C363.938 2.75999 362.754 3.20799 361.794 4.10399C360.834 4.936 360.322 6.024 360.258 7.368V44.04C360.258 51.016 362.114 56.648 365.826 60.936C369.602 65.224 374.626 67.368 380.898 67.368C387.17 67.368 392.258 65.352 396.162 61.32C400.066 57.224 402.018 51.88 402.018 45.288V7.368C401.954 6.024 401.442 4.936 400.482 4.10399C399.522 3.20799 398.338 2.75999 396.93 2.75999H395.394V1.8H413.154V2.75999ZM442.286 4.776H436.142V61.992C436.142 63.656 436.718 65.096 437.87 66.312C439.086 67.464 440.558 68.04 442.286 68.04H443.438L443.534 69H422.51V68.04H423.758C425.422 68.04 426.83 67.464 427.982 66.312C429.198 65.16 429.838 63.752 429.902 62.088V8.808C429.838 7.144 429.198 5.736 427.982 4.584C426.83 3.368 425.422 2.75999 423.758 2.75999H422.51V1.8H448.43C454.254 1.8 458.83 3.432 462.158 6.696C465.486 9.896 467.15 14.088 467.15 19.272C467.15 24.392 465.55 28.84 462.35 32.616C459.214 36.328 455.374 38.184 450.83 38.184C451.79 38.632 452.91 39.528 454.19 40.872C455.534 42.152 456.718 43.496 457.742 44.904C463.246 52.776 466.83 57.64 468.494 59.496C470.158 61.288 471.342 62.536 472.046 63.24C472.75 63.88 473.518 64.52 474.35 65.16C475.182 65.8 476.014 66.312 476.846 66.696C478.702 67.592 480.686 68.04 482.798 68.04V69H477.518C474.766 69 472.206 68.52 469.838 67.56C467.47 66.536 465.678 65.512 464.462 64.488C463.31 63.4 462.286 62.376 461.39 61.416C460.558 60.392 458.19 57.064 454.286 51.432C450.382 45.8 448.11 42.6 447.47 41.832C446.83 41 446.158 40.2 445.454 39.432C443.406 37.256 441.358 36.168 439.31 36.168V35.208C439.822 35.272 440.494 35.304 441.326 35.304C442.158 35.304 443.182 35.272 444.398 35.208C452.334 35.016 457.326 31.688 459.374 25.224C459.758 23.944 459.95 22.76 459.95 21.672C459.95 20.52 459.95 19.784 459.95 19.464C459.822 15.176 458.702 11.72 456.59 9.096C454.478 6.472 451.63 5.064 448.046 4.872C446.51 4.808 444.59 4.776 442.286 4.776ZM517.63 70.344C507.39 70.28 499.07 67.048 492.67 60.648C486.334 54.248 483.166 45.832 483.166 35.4C483.166 24.968 486.334 16.552 492.67 10.152C499.07 3.688 507.39 0.455996 517.63 0.455996C526.462 0.455996 534.238 2.632 540.958 6.984L542.878 20.52H542.014C540.606 15.016 537.758 10.792 533.47 7.848C529.246 4.84 523.966 3.336 517.63 3.336C509.502 3.336 502.91 6.28 497.854 12.168C492.862 18.056 490.366 25.8 490.366 35.4C490.366 45 492.862 52.744 497.854 58.632C502.91 64.456 509.502 67.4 517.63 67.464C521.79 67.464 525.726 66.728 529.438 65.256C533.214 63.784 536.51 61.736 539.326 59.112V42.12C539.326 40.712 538.878 39.656 537.982 38.952C537.15 38.184 535.966 37.8 534.43 37.8H532.894V36.84H551.71V37.8H550.27C548.67 37.8 547.454 38.184 546.622 38.952C545.79 39.656 545.406 40.712 545.47 42.12V57.96C543.806 60.136 541.822 62.088 539.518 63.816C537.214 65.544 534.11 67.08 530.206 68.424C526.366 69.704 522.174 70.344 517.63 70.344ZM624.56 2.75999H623.024C621.68 2.75999 620.496 3.20799 619.472 4.10399C618.512 4.936 618 5.992 617.936 7.272V45.288C617.936 52.776 615.568 58.824 610.832 63.432C606.096 68.04 599.792 70.344 591.92 70.344C584.048 70.344 577.648 68.072 572.72 63.528C567.856 58.92 565.424 52.872 565.424 45.384V7.56C565.424 5.64 564.592 4.232 562.928 3.336C562.16 2.952 561.296 2.75999 560.336 2.75999H558.8V1.8H578.288V2.75999H576.752C575.344 2.75999 574.16 3.20799 573.2 4.10399C572.24 4.936 571.728 6.024 571.664 7.368V44.04C571.664 51.016 573.52 56.648 577.232 60.936C581.008 65.224 586.032 67.368 592.304 67.368C598.576 67.368 603.664 65.352 607.568 61.32C611.472 57.224 613.424 51.88 613.424 45.288V7.368C613.36 6.024 612.848 4.936 611.888 4.10399C610.928 3.20799 609.744 2.75999 608.336 2.75999H606.8V1.8H624.56V2.75999ZM635.164 68.04C636.828 68.04 638.236 67.464 639.388 66.312C640.604 65.096 641.244 63.656 641.308 61.992V8.232C641.116 6.696 640.444 5.416 639.292 4.392C638.14 3.304 636.764 2.75999 635.164 2.75999H634.012L633.916 1.8H662.044C664.028 1.8 666.172 1.608 668.476 1.224C670.844 0.839998 672.508 0.455997 673.468 0.0719948V12.168H672.508V10.44C672.508 8.904 671.964 7.592 670.876 6.504C669.852 5.416 668.604 4.84 667.132 4.776H647.548V34.44H663.772C665.052 34.376 666.14 33.896 667.036 33C667.932 32.104 668.38 30.984 668.38 29.64V28.296H669.34V43.464H668.38V42.024C668.38 40.744 667.932 39.656 667.036 38.76C666.204 37.864 665.148 37.384 663.868 37.32H647.548V66.024H661.276C666.012 66.024 669.628 64.968 672.124 62.856C674.62 60.744 676.7 57.608 678.364 53.448H679.324L673.756 69H633.916V68.04H635.164ZM708.161 4.776H702.017V61.992C702.017 63.656 702.593 65.096 703.745 66.312C704.961 67.464 706.433 68.04 708.161 68.04H709.313L709.409 69H688.385V68.04H689.633C691.297 68.04 692.705 67.464 693.857 66.312C695.073 65.16 695.713 63.752 695.777 62.088V8.808C695.713 7.144 695.073 5.736 693.857 4.584C692.705 3.368 691.297 2.75999 689.633 2.75999H688.385V1.8H714.305C720.129 1.8 724.705 3.432 728.033 6.696C731.361 9.896 733.025 14.088 733.025 19.272C733.025 24.392 731.425 28.84 728.225 32.616C725.089 36.328 721.249 38.184 716.705 38.184C717.665 38.632 718.785 39.528 720.065 40.872C721.409 42.152 722.593 43.496 723.617 44.904C729.121 52.776 732.705 57.64 734.369 59.496C736.033 61.288 737.217 62.536 737.921 63.24C738.625 63.88 739.393 64.52 740.225 65.16C741.057 65.8 741.889 66.312 742.721 66.696C744.577 67.592 746.561 68.04 748.673 68.04V69H743.393C740.641 69 738.081 68.52 735.713 67.56C733.345 66.536 731.553 65.512 730.337 64.488C729.185 63.4 728.161 62.376 727.265 61.416C726.433 60.392 724.065 57.064 720.161 51.432C716.257 45.8 713.985 42.6 713.345 41.832C712.705 41 712.033 40.2 711.329 39.432C709.281 37.256 707.233 36.168 705.185 36.168V35.208C705.697 35.272 706.369 35.304 707.201 35.304C708.033 35.304 709.057 35.272 710.273 35.208C718.209 35.016 723.201 31.688 725.249 25.224C725.633 23.944 725.825 22.76 725.825 21.672C725.825 20.52 725.825 19.784 725.825 19.464C725.697 15.176 724.577 11.72 722.465 9.096C720.353 6.472 717.505 5.064 713.921 4.872C712.385 4.808 710.465 4.776 708.161 4.776Z" fill="white"/>
</svg>
