<svg width="380" height="403" viewBox="0 0 380 403" fill="none" xmlns="http://www.w3.org/2000/svg">
<path d="M364 344C364 376.585 337.585 403 305 403L76 403C43.4152 403 17 376.585 17 344L364 344Z" fill="#F3B003"/>
<path d="M7 330.5L16.1632 325.787C21.195 323.2 27.2969 323.947 31.5552 327.673L32.3575 328.375C37.037 332.47 44.0087 332.523 48.75 328.5L49.3014 328.032C53.7258 324.278 60.2315 324.328 64.5984 328.149L65.9917 329.368C69.9159 332.801 75.8968 332.496 79.5163 328.742V328.742C83.3009 324.818 89.6431 324.759 93.4277 328.684V328.684C97.0747 332.466 103.081 332.624 106.922 329.04L107.876 328.149C111.937 324.359 118.194 324.21 122.431 327.805L123.453 328.672C128.096 332.612 134.908 332.617 139.557 328.683L144.3 324.669C148.087 321.465 153.698 321.698 157.206 325.206L159.125 327.125C162.413 330.413 167.892 329.849 170.441 325.959V325.959C172.86 322.266 177.971 321.534 181.33 324.399L185.239 327.733C188.933 330.884 194.505 330.342 197.522 326.538V326.538C200.706 322.522 206.679 322.179 210.303 325.803L211.82 327.32C215.4 330.9 221.026 331.41 225.192 328.534L232.074 323.782C235.971 321.091 241.287 321.884 244.23 325.594L244.944 326.494C247.903 330.226 253.455 330.545 256.823 327.177L259.066 324.934C261.93 322.07 266.776 322.962 268.433 326.658V326.658C269.984 330.117 274.387 331.174 277.339 328.796L282.057 324.996C286.271 321.601 292.38 321.983 296.139 325.876L297.314 327.094C300.73 330.631 306.367 330.728 309.903 327.311L312.977 324.338C315.73 321.677 320.27 322.422 322.029 325.822V325.822C323.911 329.462 328.899 329.997 331.511 326.841L332.73 325.368C335.486 322.038 340.575 321.987 343.397 325.26L344.184 326.173C347.462 329.976 353.391 329.854 356.511 325.921L356.797 325.56C359.671 321.936 364.938 321.326 368.565 324.197L374 328.5" stroke="#3AE000" stroke-width="4"/>
<rect x="17" y="303" width="347" height="8" fill="#F5D35B"/>
<rect x="380" y="295" width="380" height="33" rx="16.5" transform="rotate(-180 380 295)" fill="#763B04"/>
<path d="M141 245C141 219.043 162.043 198 188 198H194C219.957 198 241 219.043 241 245H141Z" fill="#FFC700"/>
<rect x="364" y="254" width="347" height="33" rx="16.5" transform="rotate(-180 364 254)" fill="#F5FFD9"/>
<path d="M46.5 178.62L57.2249 172.649C72.4508 164.171 90.9921 164.233 106.161 172.812L112.115 176.179C127.293 184.763 145.847 184.819 161.077 176.327L166.987 173.032C182.564 164.347 201.588 164.616 216.912 173.739L218.156 174.479C234.178 184.017 254.176 183.847 270.034 174.038L270.603 173.686C285.359 164.559 303.793 163.734 319.305 171.507L333.5 178.62" stroke="#D56703" stroke-width="8"/>
<path d="M43.5 173L57.0172 165.223C72.3395 156.408 91.1778 156.338 106.565 165.04L112.115 168.179C127.293 176.762 145.847 176.819 161.077 168.327L166.987 165.032C182.564 156.347 201.588 156.616 216.912 165.739L218.156 166.479C234.178 176.017 254.231 175.813 270.089 166.004V166.004C285.095 156.722 303.935 156.004 319.577 164.168L336.5 173" stroke="#D46703" stroke-width="8"/>
<path d="M39.5 166.5L57.5119 156.905C72.6009 148.868 90.7508 149.097 105.632 157.513L112.115 161.179C127.293 169.763 145.847 169.819 161.077 161.327L166.987 158.032C182.564 149.347 201.588 149.616 216.912 158.739L218.156 159.479C234.178 169.017 254.176 168.847 270.034 159.038L270.543 158.723C285.332 149.576 303.811 148.769 319.341 156.592L340 167" stroke="#FFD6B0" stroke-width="8"/>
<path d="M57.2249 149.649L55.2791 146.154L55.2088 146.193L55.1402 146.235L57.2249 149.649ZM106.161 149.812L104.192 153.293L104.192 153.293L106.161 149.812ZM112.115 153.179L114.084 149.697L114.084 149.697L112.115 153.179ZM161.077 153.327L163.025 156.821L163.025 156.821L161.077 153.327ZM166.987 150.032L165.039 146.538L165.039 146.538L166.987 150.032ZM216.912 150.739L218.958 147.302L218.958 147.302L216.912 150.739ZM218.156 151.479L216.109 154.916L216.109 154.916L218.156 151.479ZM270.034 151.038L272.138 154.44L272.138 154.44L270.034 151.038ZM270.603 150.686L268.499 147.284L268.499 147.284L270.603 150.686ZM319.305 148.507L321.171 144.969L321.134 144.95L321.097 144.931L319.305 148.507ZM39.0848 165.414L59.3097 153.063L55.1402 146.235L34.9152 158.586L39.0848 165.414ZM104.192 153.293L110.146 156.66L114.084 149.697L108.13 146.33L104.192 153.293ZM163.025 156.821L168.935 153.525L165.039 146.538L159.129 149.833L163.025 156.821ZM214.866 154.176L216.109 154.916L220.202 148.042L218.958 147.302L214.866 154.176ZM272.138 154.44L272.707 154.088L268.499 147.284L267.93 147.636L272.138 154.44ZM317.44 152.046L341.134 164.538L344.866 157.462L321.171 144.969L317.44 152.046ZM272.707 154.088C286.283 145.691 303.242 144.932 317.513 152.083L321.097 144.931C304.344 136.536 284.436 137.427 268.499 147.284L272.707 154.088ZM216.109 154.916C233.413 165.217 255.012 165.033 272.138 154.44L267.93 147.636C253.341 156.66 234.942 156.817 220.202 148.042L216.109 154.916ZM168.935 153.525C183.266 145.535 200.768 145.783 214.866 154.176L218.958 147.302C202.408 137.449 181.862 137.158 165.039 146.538L168.935 153.525ZM110.146 156.66C126.539 165.931 146.577 165.992 163.025 156.821L159.129 149.833C145.118 157.646 128.048 157.594 114.084 149.697L110.146 156.66ZM59.1708 153.144C73.1786 145.344 90.2366 145.401 104.192 153.293L108.13 146.33C91.7476 137.065 71.723 136.998 55.2791 146.154L59.1708 153.144Z" fill="#D46703"/>
<path d="M17 131C17 58.6507 75.6507 0 148 0H233C305.349 0 364 58.6507 364 131H17Z" fill="#F3B003"/>
<ellipse cx="194.981" cy="24.8011" rx="7.40224" ry="19" transform="rotate(35.1012 194.981 24.8011)" fill="#F4FF7B"/>
<ellipse cx="122.981" cy="33.8011" rx="7.40224" ry="19" transform="rotate(35.1012 122.981 33.8011)" fill="#F4FF7B"/>
<ellipse cx="300.981" cy="75.8011" rx="7.40224" ry="19" transform="rotate(35.1012 300.981 75.8011)" fill="#F4FF7B"/>
<ellipse cx="64.9815" cy="75.8011" rx="7.40224" ry="19" transform="rotate(35.1012 64.9815 75.8011)" fill="#F4FF7B"/>
<ellipse cx="208.981" cy="93.8011" rx="7.40224" ry="19" transform="rotate(35.1012 208.981 93.8011)" fill="#F4FF7B"/>
<ellipse cx="156.981" cy="84.8011" rx="7.40224" ry="19" transform="rotate(35.1012 156.981 84.8011)" fill="#F4FF7B"/>
<ellipse cx="266.981" cy="42.8011" rx="7.40224" ry="19" transform="rotate(35.1012 266.981 42.8011)" fill="#F4FF7B"/>
</svg>
